<svg width="24" height="24" viewBox="0 0 24 24" fill="none" xmlns="http://www.w3.org/2000/svg">
<path d="M23.5058 10.2833L21.1124 5.50209C21.0464 5.36991 20.9549 5.25205 20.8433 5.15521C20.7317 5.05838 20.6021 4.98448 20.462 4.93773C20.3218 4.89098 20.1738 4.8723 20.0264 4.88275C19.8791 4.8932 19.7352 4.93259 19.603 4.99865L17.1449 6.22302L12.0936 4.88802C12.0322 4.87173 11.9676 4.87173 11.9061 4.88802L6.8549 6.22302L4.39677 4.99396C4.26461 4.9279 4.12073 4.88852 3.97335 4.87806C3.82597 4.86761 3.67797 4.88629 3.53781 4.93304C3.39765 4.97979 3.26807 5.05369 3.15647 5.15053C3.04487 5.24736 2.95344 5.36523 2.8874 5.4974L0.493961 10.2833C0.427898 10.4155 0.388515 10.5594 0.378063 10.7068C0.36761 10.8541 0.386292 11.0021 0.433042 11.1423C0.479791 11.2825 0.553693 11.412 0.650526 11.5236C0.747359 11.6352 0.865227 11.7267 0.997398 11.7927L3.55584 13.0724L8.7824 16.8055C8.82047 16.8328 8.86344 16.8526 8.90896 16.8636L14.909 18.3636C14.9714 18.38 15.037 18.38 15.0994 18.3635C15.1618 18.3471 15.2189 18.3149 15.2652 18.2699L20.4721 13.063L23.0033 11.7974C23.1355 11.7314 23.2534 11.6399 23.3502 11.5283C23.447 11.4167 23.5209 11.2871 23.5677 11.147C23.6144 11.0068 23.6331 10.8588 23.6227 10.7114C23.6122 10.5641 23.5728 10.4202 23.5068 10.288L23.5058 10.2833ZM18.7246 13.7474L15.2371 10.9536C15.1649 10.8957 15.0738 10.8665 14.9814 10.8717C14.889 10.8769 14.8017 10.9161 14.7365 10.9818C12.9093 12.823 10.8608 12.5858 9.55302 11.7505C9.50488 11.7196 9.4643 11.6783 9.43428 11.6296C9.40426 11.581 9.38557 11.5262 9.37959 11.4693C9.37319 11.4145 9.37922 11.359 9.39723 11.3069C9.41525 11.2548 9.44479 11.2074 9.48365 11.1683L13.6518 7.1249H17.0183L19.7933 12.6758L18.7246 13.7474ZM1.14459 10.9049C1.11461 10.812 1.122 10.7111 1.16521 10.6236L3.5624 5.83302C3.59316 5.77111 3.64043 5.71891 3.699 5.68218C3.75757 5.64545 3.82515 5.62563 3.89427 5.6249C3.95227 5.62525 4.00939 5.63905 4.06115 5.66521L6.31115 6.79021L3.58209 12.2474L1.33209 11.1224C1.28808 11.1002 1.24886 11.0696 1.21669 11.0323C1.18452 10.995 1.16002 10.9517 1.14459 10.9049ZM14.8846 17.5846L9.16021 16.153L4.22896 12.6308L7.07334 6.9374L11.9999 5.63802L14.7861 6.3749H13.4999C13.4022 6.37481 13.3084 6.41281 13.2383 6.48084L8.95396 10.6368C8.83473 10.756 8.74382 10.9005 8.68797 11.0596C8.63212 11.2187 8.61275 11.3884 8.63129 11.556C8.64983 11.7236 8.70581 11.8849 8.79509 12.0279C8.88437 12.171 9.00467 12.2921 9.14709 12.3824C11.0108 13.574 13.2843 13.3199 15.0215 11.744L18.1874 14.2808L14.8846 17.5846ZM22.8533 10.9049C22.8379 10.9517 22.8134 10.995 22.7812 11.0323C22.7491 11.0696 22.7098 11.1002 22.6658 11.1224L20.4158 12.2474L17.6886 6.79021L19.9386 5.66521C20.0272 5.62211 20.1291 5.61555 20.2224 5.64695C20.3157 5.67834 20.3929 5.74518 20.4374 5.83302L22.8308 10.619C22.8766 10.7073 22.8853 10.8101 22.8552 10.9049H22.8533ZM11.9943 20.3436C11.9735 20.4243 11.9264 20.4956 11.8606 20.5466C11.7947 20.5975 11.7138 20.625 11.6305 20.6249C11.5989 20.6251 11.5674 20.6213 11.5368 20.6136L7.62927 19.6358C7.5835 19.6246 7.54024 19.6049 7.50177 19.5777L5.0324 17.8124C4.95147 17.7546 4.89681 17.667 4.88046 17.5689C4.86411 17.4708 4.8874 17.3702 4.94521 17.2893C5.00302 17.2083 5.09061 17.1537 5.18872 17.1373C5.28682 17.121 5.3874 17.1443 5.46834 17.2021L7.87959 18.9243L11.7233 19.8852C11.7713 19.8973 11.8165 19.9188 11.8561 19.9485C11.8957 19.9782 11.9291 20.0154 11.9543 20.058C11.9795 20.1006 11.996 20.1478 12.0029 20.1968C12.0097 20.2459 12.0068 20.2958 11.9943 20.3436Z" fill="#757E9F"/>
</svg>
