<svg width="24" height="24" viewBox="0 0 20 22" fill="none" xmlns="http://www.w3.org/2000/svg">
<path d="M6.00195 6C6.01395 3.825 6.11095 2.647 6.87895 1.879C7.75795 1 9.17195 1 12 1H13C15.829 1 17.243 1 18.122 1.879C19 2.757 19 4.172 19 7V15C19 17.828 19 19.243 18.122 20.121C17.242 21 15.829 21 13 21H12C9.17195 21 7.75795 21 6.87895 20.121C6.11095 19.353 6.01395 18.175 6.00195 16" stroke="#757E9F" stroke-width="1.5" stroke-linecap="round"/>
<path d="M6 18.5C3.643 18.5 2.464 18.5 1.732 17.768C1 17.035 1 15.857 1 13.5V8.5C1 6.143 1 4.964 1.732 4.232C2.464 3.5 3.643 3.5 6 3.5" stroke="#757E9F" stroke-width="1.5"/>
<path d="M13 11H4M4 11L6 13M4 11L6 9" stroke="#757E9F" stroke-width="1.5" stroke-linecap="round" stroke-linejoin="round"/>
</svg>
