<svg width="24" height="24" viewBox="0 0 24 24" fill="none" xmlns="http://www.w3.org/2000/svg">
<path d="M5.77666 10.2955V18.265C5.77666 19.5881 5.77667 20.2497 6.22555 20.8116C6.67443 21.3736 7.21092 21.4723 8.28392 21.6696C9.27582 21.8521 10.5325 22 12 22C13.4675 22 14.7242 21.8521 15.7161 21.6696C16.7891 21.4723 17.3256 21.3736 17.7745 20.8116C18.2233 20.2497 18.2233 19.5881 18.2233 18.265V10.2955C18.2233 9.61172 18.2233 9.26982 18.3547 8.96928C18.4861 8.66875 18.7329 8.44624 19.2264 8.00123L19.4116 7.83416C20.4679 6.8817 20.996 6.40547 21 5.71612C21.004 5.02677 20.5355 4.59391 19.5987 3.72818C19.4569 3.59713 19.3164 3.47455 19.1808 3.36582C18.7094 2.98797 18.0431 2.57442 17.5332 2.27565C17.056 1.99609 16.4954 1.93167 15.9656 2.07103L15.4755 2.19993C15.0874 2.302 14.7493 2.5526 14.5274 2.90278C13.3251 4.80015 10.6749 4.80015 9.47256 2.90278C9.25065 2.5526 8.91264 2.302 8.52454 2.19993L8.03444 2.07103C7.50457 1.93167 6.94399 1.99609 6.46682 2.27565C5.95688 2.57442 5.29062 2.98797 4.81923 3.36582C4.68359 3.47455 4.5431 3.59713 4.40129 3.72818C3.46446 4.59391 2.99605 5.02677 3.00003 5.71612C3.004 6.40547 3.53211 6.8817 4.58834 7.83416L4.77364 8.00123C5.26714 8.44624 5.51388 8.66875 5.64527 8.96928C5.77666 9.26982 5.77666 9.61172 5.77666 10.2955Z" stroke="#757E9F" stroke-width="1.5" stroke-linecap="round"/>
</svg>
