<svg width="24" height="24" viewBox="0 0 24 24" fill="none" xmlns="http://www.w3.org/2000/svg">
<path d="M8 13H16M8 13V18C8 19.8856 8 20.8284 8.58579 21.4142C9.17157 22 10.1144 22 12 22C13.8856 22 14.8284 22 15.4142 21.4142C16 20.8284 16 19.8856 16 18V13M8 13C6.28928 13 4.84936 14.2804 4.64948 15.9795L4 21.5M16 13C17.7107 13 19.1506 14.2804 19.3505 15.9795L20 21.5" stroke="#757E9F" stroke-width="1.5" stroke-linecap="round"/>
<path d="M12 10C14.2091 10 16 8.20914 16 6C16 3.79086 14.2091 2 12 2C9.79086 2 8 3.79086 8 6C8 8.20914 9.79086 10 12 10Z" stroke="#757E9F" stroke-width="1.5"/>
</svg>
